<svg viewBox="0 -31 512 512" xmlns="http://www.w3.org/2000/svg"><path d="m0 270v30h36.726562l30 60h138.464844l-20 60h-34.191406v30h210v-30h-34.191406l-20-60h138.464844l30-60h36.726562v-30zm0 0"/><path d="m296.78125 63.746094c2.640625-5.726563 4.21875-12.035156 4.21875-18.746094 0-24.8125-20.1875-45-45-45s-45 20.1875-45 45c0 6.710938 1.578125 13.019531 4.21875 18.746094-90.019531 16.550781-161.457031 86.820312-179.683594 176.253906h440.929688c-18.226563-89.433594-89.664063-159.703125-179.683594-176.253906zm-55.78125-18.746094c0-8.277344 6.722656-15 15-15s15 6.722656 15 15-6.722656 15-15 15-15-6.722656-15-15zm0 0"/></svg>