<?xml version="1.0" encoding="iso-8859-1"?>
<!-- Generator: Adobe Illustrator 19.0.0, SVG Export Plug-In . SVG Version: 6.00 Build 0)  -->
<svg version="1.1" id="Capa_1" xmlns="http://www.w3.org/2000/svg" xmlns:xlink="http://www.w3.org/1999/xlink" x="0px" y="0px"
	 viewBox="0 0 512 512" style="enable-background:new 0 0 512 512;" xml:space="preserve">
<g>
	<g>
		<path d="M362,452h-30v-30H182v30h-30c-16.569,0-30,13.431-30,30v15c0,8.284,6.716,15,15,15h240c8.284,0,15-6.716,15-15v-15
			C392,465.431,378.569,452,362,452z"/>
	</g>
</g>
<g>
	<g>
		<path d="M122,95.42v169.058c11.997-2.915,24.214-4.365,36.372-4.365c29.385,0,58.521,8.408,83.628,24.668V122.036
			C201.399,89.65,160.921,83.405,122,95.42z"/>
	</g>
</g>
<g>
	<g>
		<path d="M272,122.036V284.78c35.537-23.013,79.087-30.249,120-20.303V95.42C352.765,83.317,312.368,89.835,272,122.036z"/>
	</g>
</g>
<g>
	<g>
		<path d="M467,0H45C20.186,0,0,20.186,0,45v302c0,24.814,20.186,45,45,45h422c24.814,0,45-20.186,45-45V45
			C512,20.186,491.814,0,467,0z M422,285c0,4.98-2.476,9.624-6.592,12.422c-4.131,2.783-9.39,3.369-13.975,1.509
			c-41.25-16.509-88.433-9.521-123.135,18.252C264.998,327.82,263.03,330,257,330c-6.059,0-8.043-2.216-21.299-12.817
			c-34.688-27.773-81.855-34.731-123.135-18.252c-4.6,1.816-9.844,1.245-13.975-1.509C94.476,294.624,92,289.98,92,285V84.829
			c0-6.138,3.735-11.646,9.434-13.931C150.446,51.324,208.565,56.885,257,95.612c47.877-38.281,105.953-44.52,155.566-24.714
			c5.698,2.285,9.434,7.793,9.434,13.931V285z"/>
	</g>
</g>
<g>
</g>
<g>
</g>
<g>
</g>
<g>
</g>
<g>
</g>
<g>
</g>
<g>
</g>
<g>
</g>
<g>
</g>
<g>
</g>
<g>
</g>
<g>
</g>
<g>
</g>
<g>
</g>
<g>
</g>
</svg>
