<svg height="409pt" viewBox="0 -9 409.3 409" width="409pt" xmlns="http://www.w3.org/2000/svg"><path d="m236.199219.148438h-63.199219l-16.5 91.402343h96.199219zm0 0"/><path d="m403.199219 91.550781-45.097657-91.402343h-101.601562l16.5 91.402343zm0 0"/><path d="m274.601562 189.148438c.003907 4.097656-2.496093 7.785156-6.300781 9.300781-1.175781.472656-2.433593.710937-3.699219.699219-2.75-.015626-5.378906-1.132813-7.300781-3.097657l-12.5-13.199219-13 13.296876c-1.882812 1.894531-4.433593 2.972656-7.101562 3-2.675781.011718-5.242188-1.074219-7.097657-3l-13-13.296876-12.902343 13.296876c-1.882813 1.921874-4.460938 3-7.148438 3-2.691406 0-5.265625-1.078126-7.152343-3l-13-13.296876-12.5 13.199219c-2.824219 2.972657-7.175782 3.925781-10.984376 2.40625-3.808593-1.519531-6.308593-5.207031-6.3125-9.308593v-77.597657h-134.601562v278.597657h409.300781v-278.597657h-134.699219zm-70 187c-45.839843 0-83-37.160157-83-83 0-45.839844 37.160157-83 83-83 45.839844 0 83 37.160156 83 83-.03125 45.828124-37.171874 82.972656-83 83zm0 0"/><path d="m164.199219 158.449219c2.703125.011719 5.292969 1.089843 7.199219 3l13.101562 13.402343 12.898438-13.300781c1.90625-1.921875 4.496093-3 7.203124-3 2.703126 0 5.292969 1.078125 7.199219 3l12.898438 13.300781 13.101562-13.402343c1.910157-1.910157 4.496094-2.988281 7.199219-3 2.722656 0 5.328125 1.121093 7.199219 3.101562l2.402343 2.5v-52.5h-100v52.5l2.398438-2.5c1.925781-1.902343 4.496094-3.007812 7.199219-3.101562zm0 0"/><path d="m152.699219.148438h-101.597657l-45.101562 91.402343h130.199219zm0 0"/><path d="m204.601562 230.148438c-34.796874 0-63 28.207031-63 63 0 34.796874 28.203126 63 63 63 34.792969 0 63-28.203126 63-63-.066406-34.765626-28.234374-62.933594-63-63zm20.398438 87.203124c-1.875 1.886719-4.4375 2.933594-7.101562 2.898438-2.652344-.011719-5.195313-1.050781-7.097657-2.898438l-15.199219-15.300781c-1.882812-1.882812-2.929687-4.441406-2.902343-7.101562v-30.398438c0-5.523437 4.476562-10 10-10 5.523437 0 10 4.476563 10 10v26.300781l12.402343 12.398438c1.878907 1.871094 2.929688 4.417969 2.910157 7.070312-.019531 2.652344-1.105469 5.1875-3.011719 7.03125zm0 0"/></svg>