<svg id="Layer_3" enable-background="new 0 0 64 64" height="512" viewBox="0 0 64 64" width="512" xmlns="http://www.w3.org/2000/svg"><g><path d="m36 36c1.103 0 2-.897 2-2s-.897-2-2-2c-2.206 0-4-1.794-4-4 0-1.858 1.28-3.411 3-3.858v-1.142h-15.083c-.422 2.509-2.408 4.494-4.917 4.917v6.167c2.509.422 4.494 2.408 4.917 4.917h15.083v-1.142c-1.72-.447-3-2-3-3.858h2c0 1.102.897 1.999 2 1.999zm-16-2c-1.654 0-3-1.346-3-3s1.346-3 3-3 3 1.346 3 3-1.346 3-3 3z"/><circle cx="52" cy="31" r="1"/><path d="m11 58c0 1.125-.374 2.164-1.002 3h30.002c1.654 0 3-1.346 3-3v-1h-32z"/><circle cx="20" cy="31" r="1"/><path d="m52.083 23h-15.083v1.142c1.72.447 3 2 3 3.858h-2c0-1.103-.897-2-2-2s-2 .897-2 2 .897 2 2 2c2.206 0 4 1.794 4 4 0 1.858-1.28 3.411-3 3.858v1.142h15.083c.422-2.509 2.408-4.494 4.917-4.917v-6.167c-2.509-.422-4.494-2.407-4.917-4.916zm2.917 8c0 1.654-1.346 3-3 3s-3-1.346-3-3 1.346-3 3-3 3 1.346 3 3z"/><path d="m35 55v-10h-25c-.552 0-1-.448-1-1v-26c0-.552.448-1 1-1h25v-13.483l-5.606 2.402c-.216.092-.458.105-.681.039l-9.713-2.914-9.713 2.914c-.224.067-.465.054-.681-.039l-5.606-2.402v54.483c0 1.654 1.346 3 3 3s3-1.346 3-3v-2c0-.552.448-1 1-1zm-15-47h13v2h-13zm0 4h13v2h-13zm0 35h13v2h-13zm0 4h13v2h-13zm-15-43h13v2h-13zm0 4h13v2h-13zm0 35h13v2h-13zm0 6v-2h13v2z"/><path d="m11 19v24h50v-24zm2 2h2v2h-2zm2 20h-2v-2h2zm44 0h-2v-2h2zm0-6c0 .552-.448 1-1 1-2.206 0-4 1.794-4 4 0 .552-.448 1-1 1h-34c-.552 0-1-.448-1-1 0-2.206-1.794-4-4-4-.552 0-1-.448-1-1v-8c0-.552.448-1 1-1 2.206 0 4-1.794 4-4 0-.552.448-1 1-1h34c.552 0 1 .448 1 1 0 2.206 1.794 4 4 4 .552 0 1 .448 1 1zm0-12h-2v-2h2z"/></g></svg>